<?xml version="1.0" encoding="UTF-8" standalone="no"?>
<!DOCTYPE svg PUBLIC "-//W3C//DTD SVG 1.1//EN" "http://www.w3.org/Graphics/SVG/1.1/DTD/svg11.dtd">
<svg width="100%" height="100%" viewBox="0 0 2048 2048" version="1.1" xmlns="http://www.w3.org/2000/svg" xmlns:xlink="http://www.w3.org/1999/xlink" xml:space="preserve" xmlns:serif="http://www.serif.com/" style="fill-rule:evenodd;clip-rule:evenodd;stroke-linejoin:round;stroke-miterlimit:2;">
    <rect x="0" y="0" width="2048" height="2048"/>
    <g transform="matrix(1,0,0,1,35,102)">
        <circle cx="477" cy="410" r="137" style="fill:white;"/>
    </g>
    <g transform="matrix(1,0,0,1,35,1126)">
        <circle cx="477" cy="410" r="137" style="fill:white;"/>
    </g>
    <g transform="matrix(1,0,0,1,1059,1126)">
        <circle cx="477" cy="410" r="137" style="fill:white;"/>
    </g>
    <g transform="matrix(1,0,0,1,1059,102)">
        <circle cx="477" cy="410" r="137" style="fill:white;"/>
    </g>
    <g transform="matrix(1,0,0,1,48,-55)">
        <rect x="447" y="649" width="34" height="916" style="fill:white;"/>
    </g>
    <g transform="matrix(6.12323e-17,1,-1,6.12323e-17,2094,1072)">
        <rect x="447" y="649" width="34" height="916" style="fill:white;"/>
    </g>
    <g transform="matrix(6.12323e-17,1,-1,6.12323e-17,2094,1072)">
        <rect x="447" y="649" width="34" height="916" style="fill:white;"/>
    </g>
    <g transform="matrix(0.961665,-0.961665,3.34244,3.34244,-4307.83,-2864.26)">
        <rect x="738" y="1221" width="25" height="315" style="fill:white;"/>
    </g>
</svg>
